<svg id="svg" version="1.1" xmlns="http://www.w3.org/2000/svg" xmlns:xlink="http://www.w3.org/1999/xlink" width="400" height="400" viewBox="0, 0, 400,400"><g id="svgg"><path id="path0" d="M234.250 156.188 C 234.067 156.373,233.901 156.723,233.882 156.967 C 233.863 157.211,233.748 157.487,233.626 157.580 C 233.505 157.674,233.198 158.162,232.945 158.667 C 232.692 159.171,232.332 159.771,232.145 160.000 C 231.957 160.229,231.860 160.311,231.928 160.183 C 232.007 160.032,231.986 159.989,231.866 160.063 C 231.765 160.126,231.728 160.300,231.786 160.449 C 231.861 160.646,231.829 160.683,231.669 160.585 C 231.502 160.482,231.471 160.538,231.543 160.814 C 231.603 161.042,231.531 161.287,231.352 161.465 C 231.195 161.622,230.928 162.067,230.760 162.454 C 230.591 162.841,230.379 163.112,230.288 163.056 C 230.198 162.999,230.159 163.058,230.203 163.185 C 230.247 163.312,230.125 163.567,229.933 163.750 C 229.741 163.933,229.576 164.177,229.567 164.292 C 229.527 164.782,229.490 164.847,229.308 164.734 C 229.188 164.660,229.160 164.688,229.235 164.809 C 229.379 165.042,228.768 165.874,228.579 165.703 C 228.506 165.637,228.497 165.671,228.558 165.778 C 228.724 166.067,228.371 166.876,228.141 166.734 C 228.021 166.660,227.994 166.688,228.069 166.811 C 228.217 167.050,227.532 168.206,227.319 168.075 C 227.162 167.977,227.106 168.198,227.158 168.709 C 227.175 168.871,227.071 169.047,226.928 169.102 C 226.785 169.157,226.710 169.269,226.761 169.351 C 226.812 169.433,226.774 169.500,226.677 169.500 C 226.579 169.500,226.500 169.617,226.500 169.760 C 226.500 169.903,226.440 169.983,226.367 169.937 C 226.293 169.892,226.131 170.019,226.007 170.219 C 225.797 170.556,225.801 170.566,226.069 170.344 C 226.334 170.125,226.333 170.155,226.054 170.715 C 225.880 171.064,225.625 171.327,225.458 171.329 C 225.298 171.331,225.167 171.456,225.167 171.607 C 225.167 172.185,225.680 172.322,227.917 172.341 C 229.108 172.351,229.985 172.399,229.864 172.447 C 229.744 172.496,229.575 172.720,229.489 172.946 L 229.332 173.357 226.736 173.316 C 224.063 173.273,223.693 173.358,223.917 173.967 C 223.963 174.093,223.920 174.137,223.814 174.071 C 223.692 173.996,223.668 174.076,223.744 174.313 C 223.821 174.557,223.775 174.700,223.596 174.768 C 223.452 174.823,223.377 174.935,223.427 175.017 C 223.478 175.100,223.448 175.167,223.361 175.167 C 223.274 175.167,223.148 175.373,223.081 175.625 C 223.005 175.911,222.927 175.995,222.874 175.849 C 222.752 175.515,222.167 176.777,222.167 177.374 C 222.167 178.486,222.208 178.500,225.401 178.500 L 228.290 178.500 228.400 179.326 C 228.460 179.781,228.577 180.194,228.659 180.245 C 228.741 180.296,228.932 180.712,229.084 181.170 C 229.237 181.628,229.524 182.203,229.722 182.449 C 230.344 183.217,231.651 184.473,232.063 184.700 C 232.280 184.819,232.699 185.053,232.993 185.220 C 233.697 185.619,235.502 185.993,236.736 185.997 C 237.941 186.001,239.863 185.683,239.749 185.499 C 239.704 185.425,239.798 185.399,239.960 185.441 C 241.025 185.720,244.102 182.692,244.769 180.710 C 244.965 180.128,245.172 179.606,245.229 179.549 C 245.286 179.491,245.333 179.236,245.333 178.982 L 245.333 178.519 248.673 178.468 C 252.212 178.414,252.462 178.353,252.229 177.607 C 252.086 177.147,251.630 176.669,251.444 176.785 C 251.348 176.844,251.319 176.741,251.373 176.532 C 251.424 176.337,251.405 176.194,251.330 176.214 C 251.256 176.234,250.903 175.837,250.547 175.332 C 249.865 174.365,249.552 173.743,249.835 173.918 C 250.087 174.074,250.031 173.889,249.738 173.595 C 249.523 173.380,249.026 173.333,246.973 173.333 C 244.581 173.333,244.456 173.317,244.157 172.958 C 243.665 172.369,243.720 172.347,245.792 172.297 L 247.750 172.250 247.797 171.667 C 247.828 171.284,247.793 171.159,247.696 171.304 C 247.587 171.467,247.414 171.315,247.036 170.721 C 246.755 170.279,246.407 169.785,246.262 169.625 C 246.118 169.465,246.056 169.332,246.125 169.331 C 246.194 169.329,246.171 169.273,246.075 169.206 C 245.979 169.138,245.686 168.708,245.423 168.250 C 245.160 167.792,244.893 167.379,244.829 167.333 C 244.589 167.161,244.157 166.150,244.256 165.991 C 244.312 165.900,244.296 165.836,244.221 165.849 C 243.922 165.901,243.617 165.828,243.717 165.728 C 243.775 165.670,243.675 165.434,243.495 165.205 C 243.147 164.764,243.055 164.411,243.331 164.582 C 243.428 164.642,243.453 164.571,243.392 164.411 C 243.310 164.198,243.258 164.186,243.152 164.356 C 243.051 164.521,242.988 164.494,242.894 164.245 C 242.826 164.065,242.654 163.825,242.510 163.714 C 242.300 163.549,242.295 163.510,242.486 163.505 C 242.764 163.499,242.564 163.251,242.278 163.247 C 242.171 163.246,242.089 163.081,242.096 162.882 C 242.102 162.683,242.063 162.534,242.009 162.551 C 241.827 162.610,241.209 161.921,241.086 161.521 C 240.992 161.214,241.015 161.154,241.190 161.256 C 241.324 161.333,241.360 161.324,241.278 161.235 C 241.201 161.152,241.051 161.082,240.944 161.080 C 240.837 161.079,240.756 160.914,240.762 160.714 C 240.769 160.514,240.717 160.385,240.647 160.429 C 240.458 160.545,239.820 159.802,239.855 159.506 C 239.898 159.135,239.657 158.653,239.483 158.761 C 239.400 158.812,239.333 158.744,239.333 158.611 C 239.333 158.478,239.213 158.323,239.066 158.266 C 238.915 158.208,238.840 158.057,238.893 157.917 C 238.945 157.782,238.906 157.689,238.807 157.710 C 238.707 157.732,238.587 157.646,238.541 157.518 C 238.485 157.364,238.533 157.326,238.687 157.406 C 238.813 157.471,238.771 157.407,238.593 157.262 C 238.415 157.118,238.205 157.000,238.125 157.000 C 238.045 157.000,238.023 156.931,238.076 156.846 C 238.656 155.907,235.132 155.301,234.250 156.188 M237.994 157.658 C 238.364 158.202,238.667 158.730,238.667 158.829 C 238.667 158.929,238.769 159.050,238.894 159.098 C 239.019 159.146,239.337 159.611,239.601 160.133 C 239.865 160.654,240.206 161.206,240.359 161.359 C 240.512 161.512,240.765 161.906,240.921 162.235 C 241.077 162.564,241.264 162.833,241.337 162.833 C 241.411 162.833,241.637 163.178,241.841 163.599 C 242.045 164.020,242.389 164.556,242.606 164.790 C 242.823 165.024,243.000 165.302,243.000 165.408 C 243.000 165.515,243.338 166.081,243.750 166.667 C 244.162 167.252,244.500 167.812,244.500 167.909 C 244.500 168.007,244.650 168.180,244.833 168.295 C 245.017 168.409,245.167 168.602,245.167 168.724 C 245.167 168.846,245.466 169.364,245.832 169.875 C 246.198 170.385,246.571 170.998,246.661 171.235 L 246.825 171.667 236.500 171.667 L 226.175 171.667 226.345 171.208 C 226.438 170.956,226.611 170.675,226.728 170.583 C 226.845 170.492,227.145 169.969,227.395 169.422 C 227.644 168.875,227.910 168.387,227.986 168.339 C 228.061 168.290,228.339 167.852,228.603 167.365 C 229.554 165.611,229.767 165.235,230.379 164.228 C 230.721 163.666,231.000 163.126,231.000 163.028 C 231.000 162.930,231.097 162.790,231.216 162.717 C 231.334 162.643,231.653 162.133,231.924 161.583 C 232.194 161.033,232.508 160.486,232.620 160.368 C 232.732 160.249,232.981 159.837,233.173 159.451 C 233.364 159.065,233.689 158.450,233.894 158.083 C 234.099 157.717,234.360 157.248,234.473 157.042 C 234.659 156.702,234.802 156.667,236.000 156.667 L 237.321 156.667 237.994 157.658 M159.542 166.582 L 159.000 166.817 159.000 199.888 C 159.000 233.617,159.003 233.775,159.557 233.221 C 159.617 233.160,159.667 233.199,159.667 233.306 C 159.667 233.620,173.327 233.580,173.760 233.264 C 174.071 233.036,174.086 232.692,174.167 224.006 L 174.250 214.985 175.829 217.368 C 176.697 218.678,177.470 219.825,177.546 219.917 C 177.623 220.008,178.097 220.721,178.602 221.500 C 179.106 222.279,179.628 223.067,179.762 223.250 C 179.972 223.535,181.389 225.646,182.280 227.000 C 182.431 227.229,182.974 228.042,183.486 228.806 C 183.998 229.570,184.523 230.357,184.652 230.556 C 184.781 230.754,185.217 231.423,185.621 232.041 C 186.024 232.660,186.494 233.241,186.666 233.333 C 187.218 233.628,203.845 233.544,204.242 233.244 C 204.596 232.975,204.701 231.898,204.392 231.697 C 204.296 231.635,204.037 231.310,203.817 230.977 C 203.466 230.444,202.379 228.976,201.013 227.188 C 200.776 226.880,200.471 226.456,200.333 226.248 C 200.196 226.040,199.581 225.205,198.968 224.393 C 198.354 223.581,197.657 222.654,197.419 222.333 C 196.285 220.808,195.951 220.420,195.802 220.462 C 195.714 220.488,195.690 220.430,195.749 220.334 C 195.808 220.239,195.555 219.768,195.185 219.289 C 194.370 218.230,193.957 217.680,192.556 215.790 C 191.961 214.986,191.406 214.372,191.323 214.423 C 191.239 214.475,191.210 214.413,191.259 214.286 C 191.308 214.158,191.116 213.761,190.832 213.402 C 189.746 212.028,188.000 209.661,188.000 209.561 C 188.000 209.443,189.179 208.070,190.987 206.083 C 191.237 205.808,191.919 205.021,192.501 204.333 C 193.084 203.646,193.791 202.849,194.072 202.562 C 194.832 201.788,196.302 200.100,196.330 199.969 C 196.344 199.907,196.670 199.532,197.054 199.136 C 198.471 197.676,199.322 196.615,199.219 196.435 C 199.161 196.333,199.175 196.306,199.250 196.374 C 199.325 196.442,199.682 196.180,200.041 195.791 C 203.970 191.543,204.743 190.243,203.678 189.673 C 203.175 189.404,186.976 189.438,186.633 189.708 C 185.974 190.228,183.672 193.041,183.773 193.203 C 183.834 193.303,183.810 193.339,183.719 193.282 C 183.627 193.226,183.297 193.483,182.985 193.853 C 182.672 194.224,182.192 194.772,181.917 195.072 C 181.346 195.693,180.742 196.388,179.667 197.662 C 179.254 198.151,178.637 198.858,178.295 199.234 C 177.953 199.609,177.630 200.048,177.576 200.208 C 177.522 200.369,177.416 200.500,177.340 200.500 C 177.265 200.500,176.538 201.281,175.726 202.236 L 174.250 203.972 174.163 185.361 C 174.116 175.125,174.060 166.739,174.038 166.725 C 173.327 166.255,160.582 166.130,159.542 166.582 M207.710 166.447 C 206.775 166.636,206.833 164.406,206.833 199.931 L 206.833 232.622 207.179 233.061 L 207.524 233.500 214.486 233.500 C 221.019 233.500,221.465 233.481,221.724 233.195 C 222.149 232.725,222.150 166.999,221.725 166.645 C 221.455 166.422,208.725 166.242,207.710 166.447 M306.206 166.502 C 305.487 166.798,305.496 166.323,305.540 200.257 C 305.583 232.765,305.586 232.987,305.917 233.238 C 306.461 233.649,319.818 233.622,320.310 233.208 C 320.654 232.919,320.657 232.830,320.721 220.500 C 320.784 208.485,320.867 206.484,321.315 206.167 C 321.380 206.121,321.570 205.721,321.736 205.278 C 322.017 204.528,323.497 202.833,323.870 202.833 C 323.952 202.833,323.966 202.747,323.901 202.641 C 323.835 202.535,323.851 202.491,323.935 202.543 C 324.020 202.595,324.498 202.532,324.997 202.402 C 327.176 201.837,329.834 202.219,330.823 203.239 C 331.133 203.559,331.461 203.774,331.552 203.718 C 331.646 203.660,331.666 203.699,331.599 203.808 C 331.533 203.914,331.670 204.357,331.903 204.792 C 332.721 206.324,332.721 206.321,332.822 220.035 C 332.915 232.733,332.923 232.991,333.250 233.241 C 333.745 233.619,347.592 233.549,347.844 233.167 C 348.078 232.811,347.978 203.798,347.742 203.720 C 347.646 203.687,347.599 203.395,347.637 203.065 C 347.675 202.738,347.629 202.308,347.533 202.110 C 347.437 201.912,347.315 201.412,347.260 201.000 C 347.083 199.665,346.786 198.509,346.643 198.598 C 346.567 198.645,346.546 198.575,346.597 198.442 C 346.648 198.308,346.543 197.873,346.364 197.475 C 346.184 197.076,345.870 196.356,345.665 195.875 C 345.460 195.394,345.236 195.000,345.166 195.000 C 345.097 195.000,344.947 194.774,344.833 194.498 C 344.548 193.810,342.422 191.592,342.187 191.737 C 342.084 191.801,341.999 191.755,341.999 191.635 C 341.996 191.084,339.016 189.581,337.132 189.181 C 336.372 189.019,335.600 188.819,335.417 188.736 C 334.877 188.494,328.558 188.543,328.308 188.792 C 328.194 188.906,327.989 189.000,327.853 189.000 C 327.402 189.000,324.986 189.705,324.783 189.896 C 324.673 189.999,324.232 190.249,323.803 190.450 C 322.888 190.882,321.570 191.849,321.048 192.475 L 320.679 192.917 320.673 179.895 C 320.667 167.995,320.643 166.854,320.391 166.645 C 320.060 166.370,306.851 166.237,306.206 166.502 M173.041 187.262 L 173.083 207.017 175.847 203.800 C 177.366 202.031,180.540 198.352,182.900 195.625 L 187.190 190.667 195.121 190.667 C 202.657 190.667,203.039 190.681,202.803 190.958 C 202.667 191.119,200.315 193.800,197.577 196.917 C 193.060 202.059,190.932 204.469,187.633 208.185 L 186.507 209.453 191.547 216.268 C 194.318 220.017,196.718 223.289,196.879 223.540 L 197.172 223.996 195.978 226.206 C 194.914 228.177,194.001 229.825,192.940 231.691 C 192.527 232.417,192.140 232.500,189.185 232.500 L 187.250 232.499 180.167 221.875 L 173.083 211.250 173.040 221.875 L 172.998 232.500 166.499 232.500 L 160.000 232.500 160.000 200.028 C 160.000 182.168,160.031 167.524,160.069 167.486 C 160.107 167.448,163.032 167.437,166.569 167.462 L 172.999 167.508 173.041 187.262 M221.000 174.504 C 221.000 180.839,221.073 182.086,221.394 181.250 C 221.778 180.248,221.833 181.590,221.828 191.875 C 221.825 198.858,221.766 202.653,221.664 202.478 C 221.577 202.328,220.703 201.731,219.723 201.151 C 217.913 200.079,215.914 198.366,215.093 197.180 C 213.731 195.216,212.110 196.805,208.583 203.560 C 208.492 203.736,208.342 203.888,208.250 203.898 C 208.093 203.916,207.905 167.992,208.061 167.583 C 208.102 167.475,210.381 167.433,214.562 167.462 L 221.000 167.508 221.000 174.504 M319.667 181.865 L 319.667 196.230 320.260 195.240 C 325.022 187.295,340.270 187.825,344.529 196.083 C 346.713 200.319,347.046 203.787,346.966 221.500 L 346.917 232.417 340.470 232.460 L 334.024 232.504 333.960 219.960 C 333.889 206.054,333.896 206.134,332.725 203.984 C 330.143 199.239,322.301 200.208,320.412 205.505 C 319.805 207.207,319.780 207.700,319.682 220.083 L 319.583 232.417 313.125 232.460 L 306.667 232.504 306.667 200.002 L 306.667 167.500 313.167 167.500 L 319.667 167.500 319.667 181.865 M14.540 170.831 C 14.293 171.227,14.237 232.757,14.484 233.146 C 14.564 233.273,14.713 233.325,14.815 233.262 C 14.917 233.199,15.000 233.232,15.000 233.335 C 15.000 233.617,41.168 233.465,43.375 233.170 C 44.269 233.051,45.000 232.899,45.000 232.833 C 45.000 232.767,45.188 232.749,45.418 232.793 C 45.647 232.837,45.929 232.799,46.043 232.709 C 46.157 232.620,46.943 232.414,47.789 232.253 C 48.636 232.092,49.292 231.901,49.247 231.829 C 49.203 231.757,49.309 231.735,49.484 231.781 C 49.659 231.827,50.053 231.751,50.359 231.613 C 50.666 231.476,51.442 231.196,52.083 230.993 C 52.725 230.789,53.438 230.526,53.667 230.408 C 53.896 230.289,54.683 229.909,55.417 229.564 C 56.150 229.218,57.204 228.664,57.758 228.332 C 58.313 228.000,58.899 227.677,59.060 227.615 C 59.222 227.553,59.308 227.428,59.252 227.336 C 59.193 227.241,59.258 227.212,59.407 227.269 C 59.558 227.327,59.706 227.258,59.766 227.101 C 59.823 226.954,59.941 226.833,60.029 226.833 C 60.414 226.833,63.330 224.405,64.511 223.101 C 64.918 222.653,65.400 222.128,65.583 221.935 C 67.485 219.929,70.157 215.312,70.897 212.750 C 71.056 212.200,71.245 211.637,71.317 211.500 C 71.561 211.035,71.868 209.498,71.769 209.239 C 71.715 209.098,71.735 209.023,71.814 209.071 C 71.979 209.173,72.333 206.644,72.333 205.364 C 72.333 204.889,72.408 204.500,72.500 204.500 C 72.603 204.500,72.667 203.587,72.667 202.093 C 72.667 200.668,72.599 199.644,72.500 199.583 C 72.408 199.527,72.333 199.091,72.333 198.615 C 72.332 197.379,71.994 194.760,71.827 194.698 C 71.749 194.669,71.725 194.542,71.773 194.416 C 71.871 194.162,71.544 192.418,71.322 192.010 C 71.245 191.867,71.060 191.300,70.913 190.750 C 70.765 190.200,70.504 189.450,70.333 189.083 C 70.162 188.717,69.833 188.004,69.603 187.500 C 68.390 184.847,66.303 181.928,64.189 179.929 C 63.698 179.464,63.037 178.833,62.722 178.527 C 62.380 178.195,62.048 178.010,61.899 178.067 C 61.762 178.120,61.689 178.099,61.737 178.020 C 61.850 177.838,61.260 177.295,61.111 177.444 C 61.050 177.505,61.000 177.474,61.000 177.375 C 61.000 177.275,60.719 177.023,60.375 176.814 C 60.031 176.605,59.702 176.364,59.644 176.279 C 59.585 176.194,59.435 176.183,59.310 176.255 C 59.185 176.328,59.141 176.324,59.211 176.247 C 59.349 176.094,58.287 175.427,56.833 174.752 C 56.329 174.518,55.729 174.223,55.500 174.096 C 55.271 173.968,54.596 173.704,54.000 173.507 C 53.404 173.310,52.692 173.048,52.417 172.923 C 52.142 172.799,51.129 172.524,50.167 172.312 C 49.204 172.100,48.368 171.858,48.309 171.774 C 48.250 171.690,48.009 171.658,47.774 171.703 C 47.538 171.748,47.324 171.723,47.297 171.647 C 47.271 171.571,46.800 171.489,46.250 171.463 C 45.700 171.438,45.211 171.364,45.162 171.301 C 45.114 171.237,44.064 171.099,42.829 170.995 C 41.594 170.891,40.453 170.736,40.294 170.653 C 39.615 170.295,14.767 170.467,14.540 170.831 M42.250 171.900 C 60.975 174.202,70.862 183.943,71.448 200.667 C 72.042 217.615,61.387 229.389,43.000 232.104 C 41.362 232.346,39.211 232.397,28.208 232.455 L 15.333 232.522 15.333 201.999 L 15.333 171.475 27.625 171.544 C 37.936 171.602,40.293 171.659,42.250 171.900 M249.578 174.792 C 249.897 175.227,250.160 175.677,250.163 175.792 C 250.165 175.906,250.227 176.000,250.301 176.000 C 250.479 176.000,251.370 177.660,251.209 177.692 C 250.391 177.855,222.833 177.713,222.833 177.545 C 222.833 177.202,223.360 176.000,223.510 176.000 C 223.588 176.000,223.799 175.665,223.980 175.256 C 224.583 173.894,223.353 174.013,236.873 174.006 L 248.997 174.000 249.578 174.792 M359.454 177.502 C 359.194 177.805,359.167 178.392,359.167 183.669 L 359.167 189.500 355.417 189.500 C 353.340 189.500,351.667 189.566,351.667 189.648 C 351.667 189.730,351.535 189.786,351.375 189.773 C 351.192 189.759,351.092 189.859,351.106 190.042 C 351.119 190.202,351.063 190.333,350.981 190.333 C 350.898 190.333,350.833 192.739,350.833 195.841 L 350.833 201.349 351.274 201.758 C 351.715 202.166,351.717 202.167,355.441 202.167 L 359.167 202.167 359.167 212.752 C 359.167 218.691,359.232 223.465,359.317 223.627 C 359.399 223.786,359.591 224.492,359.744 225.195 C 359.897 225.898,360.155 226.723,360.318 227.028 C 361.155 228.600,361.435 229.049,361.625 229.122 C 361.740 229.166,361.833 229.297,361.833 229.412 C 361.833 229.602,362.831 230.593,363.844 231.408 C 364.614 232.027,366.851 233.195,367.092 233.103 C 367.225 233.052,367.333 233.073,367.333 233.150 C 367.333 233.227,367.690 233.386,368.125 233.504 C 368.560 233.622,368.992 233.773,369.083 233.840 C 370.143 234.614,381.746 234.613,382.750 233.839 C 382.842 233.768,383.329 233.617,383.833 233.503 C 384.337 233.389,384.919 233.190,385.125 233.061 L 385.500 232.826 385.500 226.841 C 385.500 221.623,385.466 220.824,385.238 220.595 C 384.899 220.256,383.856 220.248,383.727 220.584 C 383.419 221.387,378.023 221.762,376.496 221.087 C 374.401 220.161,374.170 218.968,374.168 209.042 L 374.167 202.167 379.500 202.167 C 382.475 202.167,384.833 202.102,384.833 202.019 C 384.833 201.938,384.983 201.833,385.167 201.785 C 385.492 201.700,385.500 201.558,385.500 195.858 L 385.500 190.019 385.130 189.759 C 384.813 189.538,383.987 189.500,379.463 189.500 L 374.167 189.500 374.167 183.595 C 374.167 178.449,374.133 177.657,373.905 177.429 C 373.447 176.970,359.850 177.039,359.454 177.502 M373.127 184.458 L 373.171 190.667 378.835 190.667 L 384.500 190.667 384.500 195.833 L 384.500 201.000 378.833 201.000 L 373.167 201.000 373.167 208.713 C 373.167 219.775,373.405 220.906,375.973 222.042 C 377.769 222.837,383.531 222.561,384.091 221.654 C 384.433 221.100,384.500 221.945,384.500 226.837 L 384.500 232.175 384.087 232.332 C 381.331 233.380,374.992 233.787,371.167 233.161 C 366.499 232.398,363.088 230.156,361.440 226.768 C 360.265 224.352,360.278 224.503,360.211 212.125 L 360.151 201.000 356.076 201.000 L 352.000 201.000 352.000 195.833 L 352.000 190.667 356.083 190.667 L 360.167 190.667 360.167 184.528 C 360.167 181.151,360.218 178.338,360.280 178.276 C 360.342 178.214,363.248 178.182,366.738 178.206 L 373.083 178.250 373.127 184.458 M28.833 202.000 L 28.833 220.000 33.292 220.000 C 42.623 220.000,47.209 218.951,51.285 215.885 C 58.787 210.241,59.776 196.856,53.200 189.962 C 49.033 185.594,43.791 184.000,33.590 184.000 L 28.833 184.000 28.833 202.000 M40.504 185.337 C 42.238 185.547,44.554 185.998,44.667 186.148 C 44.712 186.209,45.200 186.395,45.750 186.561 C 46.897 186.907,49.227 188.054,49.725 188.519 C 49.911 188.692,50.113 188.833,50.175 188.833 C 50.236 188.833,50.612 189.091,51.010 189.406 C 51.408 189.721,51.805 189.934,51.892 189.880 C 51.980 189.826,52.001 189.863,51.940 189.963 C 51.878 190.062,51.908 190.193,52.005 190.253 C 52.102 190.313,52.470 190.727,52.822 191.172 C 53.174 191.618,53.515 191.930,53.578 191.866 C 53.642 191.802,53.672 191.825,53.643 191.917 C 53.615 192.008,53.733 192.308,53.906 192.583 C 54.078 192.858,54.383 193.346,54.584 193.667 C 54.785 193.987,55.049 194.527,55.171 194.866 C 55.294 195.205,55.467 195.437,55.556 195.382 C 55.645 195.327,55.666 195.367,55.601 195.471 C 55.482 195.664,55.784 196.939,56.027 197.264 C 56.560 197.978,56.555 205.271,56.020 206.285 C 55.934 206.449,55.705 207.166,55.510 207.877 C 55.136 209.248,54.044 211.455,53.391 212.159 C 53.176 212.390,53.000 212.634,53.000 212.699 C 53.000 212.899,50.481 215.333,50.274 215.333 C 50.221 215.333,49.714 215.633,49.146 216.000 C 48.579 216.367,48.057 216.667,47.986 216.667 C 47.915 216.667,47.370 216.892,46.776 217.167 C 46.182 217.442,45.573 217.667,45.422 217.667 C 45.271 217.667,45.193 217.741,45.249 217.831 C 45.305 217.922,45.253 217.959,45.134 217.914 C 45.014 217.869,44.167 217.987,43.250 218.175 C 42.333 218.364,41.208 218.589,40.750 218.676 C 40.292 218.762,37.648 218.881,34.875 218.940 L 29.833 219.048 29.833 202.107 L 29.833 185.167 34.463 185.167 C 37.009 185.167,39.728 185.243,40.504 185.337 M95.500 188.626 C 95.500 188.696,95.154 188.725,94.731 188.691 C 94.309 188.658,93.803 188.706,93.606 188.799 C 93.410 188.891,92.446 189.097,91.462 189.256 C 90.479 189.415,89.710 189.603,89.754 189.673 C 89.798 189.744,89.688 189.764,89.510 189.718 C 89.332 189.671,88.954 189.748,88.672 189.889 C 88.389 190.030,87.739 190.267,87.229 190.416 C 86.219 190.709,83.649 191.884,83.297 192.213 C 83.177 192.325,82.785 192.567,82.427 192.750 C 81.527 193.210,80.653 193.928,80.797 194.088 C 80.863 194.160,80.827 194.168,80.716 194.105 C 80.606 194.042,80.306 194.177,80.050 194.405 C 79.793 194.633,79.340 195.017,79.042 195.258 C 78.331 195.833,78.264 196.817,78.911 197.164 C 79.137 197.285,79.291 197.433,79.254 197.493 C 79.078 197.778,85.939 204.500,86.405 204.500 C 86.915 204.500,88.725 202.897,88.545 202.604 C 88.492 202.519,88.526 202.496,88.621 202.555 C 88.716 202.614,89.084 202.430,89.438 202.148 C 90.396 201.384,92.581 200.192,93.052 200.177 C 93.217 200.171,93.311 200.099,93.260 200.016 C 93.208 199.932,93.301 199.900,93.466 199.943 C 93.631 199.986,94.100 199.905,94.508 199.763 C 97.701 198.651,102.241 200.467,103.578 203.390 C 104.167 204.678,104.209 204.636,102.208 204.727 C 95.981 205.008,91.330 205.452,89.750 205.917 C 89.292 206.052,88.281 206.319,87.503 206.511 C 86.725 206.703,85.900 206.961,85.670 207.083 C 85.439 207.206,84.927 207.426,84.532 207.572 C 83.829 207.833,81.718 208.973,81.297 209.320 C 79.724 210.615,79.260 211.030,79.052 211.327 C 78.917 211.521,78.643 211.854,78.444 212.069 C 77.623 212.955,76.500 215.247,76.500 216.039 C 76.500 216.201,76.434 216.333,76.354 216.333 C 75.715 216.333,75.695 223.466,76.330 224.636 C 76.414 224.790,76.604 225.307,76.752 225.785 C 76.901 226.262,77.204 226.921,77.426 227.248 C 77.648 227.575,77.938 228.052,78.070 228.307 C 78.992 230.091,82.597 232.721,85.083 233.424 C 85.633 233.580,86.166 233.773,86.268 233.854 C 87.263 234.648,95.852 234.641,97.286 233.845 C 97.450 233.754,98.240 233.487,99.042 233.251 C 99.844 233.015,100.500 232.758,100.500 232.679 C 100.500 232.601,100.689 232.489,100.921 232.430 C 101.152 232.372,101.490 232.177,101.671 231.996 C 101.852 231.815,102.019 231.683,102.042 231.703 C 102.160 231.808,103.659 230.623,103.577 230.490 C 103.524 230.404,103.591 230.333,103.726 230.333 C 103.862 230.333,104.010 230.240,104.056 230.125 C 104.103 230.010,104.146 230.645,104.154 231.536 C 104.165 232.958,104.206 233.176,104.489 233.327 C 105.160 233.687,117.390 233.551,117.818 233.180 L 118.188 232.859 118.120 219.388 C 118.073 210.251,117.992 205.702,117.867 205.250 C 117.765 204.883,117.527 203.615,117.339 202.431 C 117.150 201.247,116.933 200.197,116.857 200.097 C 116.781 199.998,116.546 199.367,116.335 198.695 C 116.123 198.023,115.867 197.384,115.767 197.274 C 115.666 197.164,115.409 196.730,115.197 196.309 C 114.984 195.888,114.647 195.334,114.447 195.079 C 113.609 194.008,112.762 193.067,112.425 192.833 C 112.227 192.696,111.918 192.433,111.737 192.250 C 111.556 192.067,111.110 191.767,110.746 191.583 C 110.382 191.400,110.026 191.161,109.956 191.053 C 109.886 190.944,109.436 190.707,108.956 190.524 C 108.476 190.342,107.858 190.079,107.583 189.940 C 107.059 189.675,103.984 189.000,103.299 189.000 C 103.079 189.000,102.817 188.917,102.716 188.816 C 102.613 188.713,102.161 188.658,101.683 188.691 C 101.215 188.724,100.833 188.694,100.833 188.625 C 100.833 188.556,99.633 188.500,98.167 188.500 C 96.700 188.500,95.500 188.557,95.500 188.626 M147.750 188.611 C 147.383 188.654,147.012 188.759,146.925 188.844 C 146.838 188.930,146.636 189.000,146.475 189.000 C 146.011 189.000,143.500 189.834,143.500 189.988 C 143.500 190.065,143.342 190.169,143.150 190.219 C 142.927 190.278,142.846 190.385,142.926 190.515 C 143.002 190.639,142.982 190.675,142.874 190.609 C 142.623 190.453,142.147 190.667,142.277 190.877 C 142.336 190.973,142.308 191.004,142.214 190.946 C 142.120 190.888,141.814 191.045,141.534 191.295 C 141.255 191.545,140.925 191.830,140.802 191.928 C 140.679 192.026,140.223 192.512,139.789 193.009 L 139.000 193.911 138.997 191.997 C 138.994 189.309,139.832 189.591,131.684 189.536 L 124.689 189.490 124.345 189.860 L 124.000 190.230 124.000 211.605 L 124.000 232.981 124.370 233.241 C 124.824 233.558,138.099 233.637,138.680 233.326 C 138.997 233.157,139.005 232.906,138.997 223.770 C 138.993 218.610,139.023 214.282,139.064 214.153 C 139.105 214.023,139.179 212.890,139.228 211.635 C 139.278 210.380,139.390 209.218,139.478 209.052 C 139.566 208.886,139.768 208.236,139.926 207.608 C 140.306 206.094,141.421 204.405,142.469 203.751 C 142.899 203.483,143.287 203.213,143.333 203.151 C 143.810 202.502,152.642 201.699,152.245 202.341 C 152.153 202.490,153.467 202.707,153.677 202.577 C 153.763 202.524,153.833 202.560,153.833 202.657 C 153.833 202.754,154.129 202.833,154.491 202.833 C 155.682 202.833,155.667 202.925,155.667 195.865 L 155.667 189.637 155.292 189.324 C 155.085 189.152,154.763 189.009,154.575 189.006 C 154.387 189.002,154.148 188.915,154.044 188.810 C 153.847 188.614,149.038 188.462,147.750 188.611 M267.375 188.611 C 266.894 188.651,266.500 188.746,266.500 188.821 C 266.500 188.896,266.133 189.006,265.684 189.065 C 264.673 189.199,262.836 189.788,262.500 190.086 C 262.362 190.208,262.044 190.359,261.793 190.421 C 261.535 190.486,261.383 190.612,261.444 190.710 C 261.507 190.813,261.471 190.835,261.357 190.764 C 260.890 190.476,257.432 193.099,255.833 194.953 C 255.421 195.432,254.985 195.937,254.865 196.076 C 253.889 197.208,251.985 200.728,251.639 202.042 C 251.525 202.477,251.378 202.833,251.312 202.833 C 251.247 202.833,251.037 203.565,250.845 204.458 C 250.653 205.352,250.420 206.308,250.328 206.583 C 249.788 208.190,249.787 214.742,250.326 216.419 C 250.414 216.693,250.608 217.479,250.758 218.167 C 251.235 220.359,252.716 223.710,253.863 225.191 C 254.122 225.525,254.333 225.856,254.333 225.927 C 254.333 226.507,258.415 230.168,260.000 231.008 C 260.412 231.227,260.862 231.488,261.000 231.588 C 261.137 231.689,261.587 231.911,262.000 232.082 C 262.412 232.252,263.071 232.532,263.463 232.702 C 264.235 233.038,266.972 233.660,267.698 233.664 C 267.945 233.665,268.193 233.742,268.250 233.833 C 268.379 234.042,273.722 234.059,274.127 233.852 C 274.286 233.771,275.137 233.552,276.017 233.366 C 278.176 232.910,281.573 231.240,282.050 230.401 C 282.705 229.249,282.582 232.686,281.900 234.580 C 281.068 236.895,279.575 238.695,277.872 239.438 C 277.347 239.666,276.794 239.919,276.645 239.999 C 275.341 240.697,267.888 240.714,267.333 240.021 C 267.287 239.964,266.594 239.699,265.792 239.433 C 264.990 239.168,264.333 238.895,264.333 238.827 C 264.333 238.759,264.042 238.586,263.686 238.444 C 262.911 238.134,260.788 236.740,259.265 235.542 C 258.566 234.991,257.938 235.050,257.475 235.708 C 257.266 236.006,257.017 236.335,256.922 236.438 C 256.827 236.542,256.525 236.985,256.250 237.424 C 255.975 237.863,255.563 238.497,255.333 238.833 C 255.104 239.170,254.692 239.804,254.417 240.242 C 254.142 240.681,253.838 241.125,253.741 241.228 C 253.645 241.332,253.085 242.167,252.497 243.083 C 251.909 244.000,251.379 244.787,251.319 244.833 C 250.335 245.588,249.964 247.319,250.670 247.862 C 250.947 248.076,251.414 248.456,251.707 248.708 C 252.001 248.960,252.311 249.167,252.396 249.167 C 252.482 249.167,252.793 249.351,253.088 249.576 C 253.749 250.080,256.859 251.667,257.187 251.667 C 257.318 251.667,257.586 251.779,257.781 251.916 C 258.156 252.178,261.320 252.999,261.958 253.000 C 262.165 253.000,262.333 253.065,262.333 253.143 C 262.333 254.205,278.517 254.228,281.083 253.170 C 281.267 253.095,282.054 252.861,282.833 252.651 C 283.612 252.441,284.677 252.058,285.199 251.801 C 285.721 251.544,286.208 251.332,286.282 251.330 C 286.417 251.327,287.217 250.828,288.731 249.802 C 289.566 249.236,292.052 246.891,292.500 246.246 C 293.865 244.283,294.549 243.157,294.791 242.476 C 294.949 242.031,295.133 241.667,295.200 241.667 C 295.268 241.667,295.519 241.010,295.760 240.208 C 296.000 239.406,296.275 238.586,296.370 238.386 C 296.466 238.186,296.498 237.901,296.441 237.753 C 296.384 237.604,296.402 237.523,296.480 237.571 C 296.636 237.667,296.715 237.244,297.081 234.333 C 297.510 230.932,297.445 189.905,297.011 189.673 C 296.805 189.562,294.425 189.500,290.428 189.500 C 282.910 189.500,283.500 189.308,283.500 191.758 L 283.500 193.350 282.880 192.883 C 282.540 192.627,282.144 192.304,282.001 192.167 C 281.859 192.029,281.446 191.767,281.084 191.583 C 280.722 191.400,280.288 191.128,280.119 190.978 C 279.950 190.828,279.409 190.579,278.916 190.424 C 278.423 190.269,277.996 190.077,277.968 189.997 C 277.940 189.917,277.092 189.650,276.083 189.402 C 275.075 189.155,274.107 188.880,273.932 188.791 C 273.592 188.620,268.838 188.489,267.375 188.611 M229.704 189.759 L 229.333 190.019 229.333 211.597 L 229.333 233.175 229.761 233.337 C 230.465 233.605,243.682 233.541,244.042 233.268 C 244.317 233.059,244.333 231.827,244.333 211.533 L 244.333 190.019 243.963 189.759 C 243.642 189.535,242.681 189.500,236.833 189.500 C 230.986 189.500,230.024 189.535,229.704 189.759 M103.266 189.996 C 110.354 191.152,114.672 195.106,116.161 201.803 C 116.915 205.199,116.997 206.977,116.998 220.125 L 117.000 232.500 111.083 232.500 L 105.167 232.500 105.157 229.792 L 105.148 227.083 104.788 227.583 C 101.604 232.001,95.469 234.193,88.917 233.255 C 80.853 232.101,76.157 226.439,76.981 218.864 C 77.954 209.920,86.082 205.871,103.125 205.837 C 104.700 205.834,105.167 205.783,105.167 205.614 C 105.167 197.849,94.344 195.952,87.338 202.488 L 86.426 203.339 83.535 200.461 C 81.945 198.878,80.409 197.291,80.121 196.933 L 79.598 196.282 80.341 195.620 C 85.612 190.923,94.933 188.636,103.266 189.996 M153.658 189.847 L 154.500 190.028 154.500 195.942 C 154.500 201.497,154.482 201.850,154.208 201.766 C 148.971 200.157,143.328 201.060,140.656 203.934 C 138.324 206.444,138.006 208.758,138.002 223.294 L 138.000 232.504 131.542 232.460 L 125.083 232.417 125.041 211.542 L 124.999 190.667 131.499 190.667 L 138.000 190.667 138.010 194.042 C 138.018 196.717,138.061 197.353,138.218 197.108 C 141.151 192.550,143.150 190.863,146.630 190.007 C 148.121 189.641,152.256 189.546,153.658 189.847 M243.894 189.981 C 244.145 190.189,244.166 190.921,244.127 198.063 L 244.083 205.917 243.167 206.038 C 242.046 206.187,232.580 206.318,230.792 206.209 L 229.500 206.130 229.500 198.060 C 229.500 190.222,229.509 189.986,229.824 189.870 C 230.481 189.627,243.592 189.730,243.894 189.981 M273.787 189.918 C 277.665 190.654,280.788 192.275,283.208 194.810 L 284.500 196.163 284.500 193.415 L 284.500 190.667 290.417 190.667 L 296.333 190.667 296.332 211.292 C 296.331 231.905,296.294 233.431,295.730 236.241 C 295.452 237.630,294.732 239.995,294.523 240.208 C 294.374 240.360,292.951 238.440,290.661 235.000 C 289.716 233.579,288.594 231.961,288.168 231.405 C 287.743 230.848,286.814 229.536,286.104 228.488 C 285.395 227.441,283.770 225.052,282.494 223.181 L 280.173 219.779 281.480 218.417 C 289.437 210.130,280.069 197.156,269.689 202.086 C 269.008 202.409,268.420 202.642,268.381 202.604 C 268.091 202.313,265.664 198.781,264.883 197.512 C 263.383 195.075,261.604 193.183,260.801 193.171 C 260.536 193.167,259.677 194.189,258.602 195.786 C 257.989 196.697,254.159 200.429,253.083 201.163 C 252.625 201.476,252.152 201.849,252.033 201.991 C 251.847 202.214,251.831 202.191,251.921 201.833 C 252.097 201.132,253.446 198.439,253.817 198.049 C 254.009 197.846,254.167 197.617,254.167 197.540 C 254.167 197.462,254.429 197.144,254.750 196.833 C 255.071 196.522,255.334 196.189,255.335 196.092 C 255.337 195.791,258.891 192.232,259.502 191.918 C 259.822 191.754,260.262 191.480,260.481 191.310 C 260.699 191.139,260.962 191.002,261.064 191.005 C 261.166 191.008,261.126 191.083,260.974 191.171 C 260.803 191.271,260.731 191.460,260.785 191.666 C 260.895 192.086,260.807 192.101,262.129 191.438 C 265.394 189.802,270.007 189.201,273.787 189.918 M275.763 202.146 C 275.713 202.226,275.987 202.342,276.371 202.403 C 276.755 202.465,277.410 202.673,277.826 202.867 C 278.243 203.060,278.640 203.207,278.708 203.193 C 278.777 203.178,278.833 203.236,278.833 203.320 C 278.833 203.404,279.090 203.631,279.404 203.825 C 279.717 204.019,280.309 204.508,280.719 204.912 C 281.129 205.316,281.522 205.595,281.592 205.532 C 281.663 205.468,281.675 205.497,281.619 205.594 C 281.564 205.692,281.739 206.105,282.009 206.511 C 282.278 206.917,282.622 207.625,282.772 208.083 C 282.921 208.542,283.128 209.022,283.230 209.150 C 283.482 209.467,283.474 212.831,283.220 213.349 C 283.112 213.570,282.905 214.125,282.760 214.583 C 282.289 216.075,280.421 218.220,278.833 219.092 C 278.512 219.269,278.137 219.501,278.000 219.608 C 277.218 220.219,274.506 220.604,272.824 220.343 C 267.730 219.553,264.139 214.439,265.186 209.467 C 265.634 207.339,267.686 204.430,269.333 203.586 C 269.654 203.421,269.954 203.240,270.000 203.182 C 270.105 203.049,270.927 202.677,271.583 202.466 C 271.858 202.377,272.908 202.248,273.917 202.178 C 274.925 202.108,275.773 202.040,275.802 202.026 C 275.830 202.012,275.812 202.066,275.763 202.146 M97.667 214.348 C 93.544 214.745,90.297 216.398,89.595 218.458 C 87.843 223.599,94.514 226.478,100.917 223.344 C 103.985 221.842,105.163 219.726,105.166 215.708 L 105.167 214.167 102.125 214.189 C 100.452 214.202,98.446 214.273,97.667 214.348 M104.112 216.758 C 104.050 217.706,103.892 218.599,103.721 218.967 C 103.296 219.883,102.628 220.885,102.261 221.157 C 102.083 221.288,101.814 221.513,101.663 221.657 C 100.860 222.418,98.392 223.329,96.751 223.471 C 92.843 223.807,90.416 222.469,90.418 219.977 C 90.418 219.341,90.495 218.767,90.588 218.702 C 90.681 218.637,90.886 218.382,91.042 218.136 C 91.595 217.267,94.367 215.833,95.494 215.833 C 95.644 215.833,95.843 215.757,95.937 215.663 C 96.151 215.449,99.066 215.221,101.983 215.190 L 104.217 215.167 104.112 216.758 " stroke="none" fill="#f1d445" fill-rule="evenodd"></path><path id="path1" d="M234.353 157.439 C 234.067 157.870,233.833 158.309,233.833 158.414 C 233.833 158.518,233.702 158.749,233.542 158.927 C 233.381 159.105,233.028 159.700,232.757 160.250 C 232.487 160.800,232.168 161.310,232.049 161.383 C 231.930 161.457,231.833 161.611,231.833 161.726 C 231.833 161.841,231.597 162.306,231.307 162.759 C 230.688 163.729,229.986 164.972,229.503 165.951 C 229.313 166.337,229.056 166.753,228.932 166.877 C 228.808 167.001,228.507 167.525,228.263 168.040 C 228.020 168.555,227.759 169.001,227.684 169.030 C 227.608 169.059,227.392 169.421,227.202 169.833 C 227.012 170.246,226.694 170.827,226.496 171.125 L 226.134 171.667 236.480 171.667 L 246.826 171.667 246.623 171.208 C 246.512 170.956,246.332 170.675,246.223 170.583 C 246.114 170.492,245.821 170.042,245.571 169.583 C 245.321 169.125,244.940 168.538,244.725 168.279 C 244.510 168.020,244.333 167.750,244.333 167.680 C 244.333 167.609,244.146 167.334,243.917 167.068 C 243.688 166.801,243.500 166.523,243.500 166.449 C 243.500 166.375,243.124 165.738,242.664 165.032 C 242.204 164.327,241.757 163.637,241.671 163.500 C 241.585 163.362,241.180 162.752,240.772 162.144 C 240.363 161.536,239.899 160.786,239.741 160.477 C 239.584 160.169,239.353 159.857,239.227 159.783 C 239.102 159.710,239.000 159.572,239.000 159.477 C 239.000 159.381,238.717 158.879,238.370 158.360 C 238.024 157.841,237.660 157.267,237.561 157.083 C 237.410 156.803,237.182 156.742,236.128 156.702 L 234.874 156.653 234.353 157.439 M232.933 158.183 C 232.786 158.479,232.698 158.753,232.737 158.793 C 232.776 158.832,232.932 158.625,233.083 158.333 C 233.234 158.041,233.323 157.767,233.280 157.724 C 233.237 157.681,233.081 157.888,232.933 158.183 M231.955 159.955 C 231.802 160.291,231.703 160.591,231.734 160.622 C 231.764 160.653,231.918 160.407,232.076 160.076 C 232.233 159.744,232.333 159.444,232.297 159.408 C 232.261 159.372,232.107 159.618,231.955 159.955 M241.677 162.250 C 241.677 162.342,241.787 162.562,241.922 162.740 C 242.057 162.918,242.167 162.989,242.167 162.897 C 242.167 162.805,242.057 162.585,241.922 162.407 C 241.787 162.229,241.677 162.158,241.677 162.250 M242.752 163.880 C 242.913 164.135,243.087 164.302,243.138 164.251 C 243.190 164.199,243.058 163.991,242.846 163.787 L 242.460 163.417 242.752 163.880 M243.167 164.668 C 243.167 164.761,243.317 164.965,243.500 165.122 C 243.683 165.279,243.835 165.484,243.837 165.579 C 243.842 165.787,244.491 166.640,244.496 166.445 C 244.500 166.290,243.339 164.500,243.234 164.500 C 243.197 164.500,243.167 164.576,243.167 164.668 M228.527 165.924 C 228.248 166.537,228.301 166.667,228.603 166.110 C 228.744 165.850,228.828 165.606,228.790 165.568 C 228.752 165.530,228.634 165.690,228.527 165.924 M244.500 166.839 C 244.500 166.927,244.562 167.000,244.639 167.000 C 244.715 167.000,244.882 167.206,245.010 167.458 C 245.514 168.452,245.713 168.694,245.848 168.476 C 245.927 168.349,245.860 168.184,245.679 168.056 C 245.514 167.941,245.287 167.624,245.174 167.352 C 244.976 166.873,244.500 166.511,244.500 166.839 M160.167 199.917 L 160.167 232.333 166.582 232.333 L 172.998 232.333 173.040 221.725 L 173.083 211.116 180.154 221.725 L 187.224 232.333 189.243 232.333 C 191.076 232.333,191.265 232.305,191.285 232.030 C 191.324 231.513,192.629 228.881,193.641 227.278 C 194.172 226.438,194.958 225.092,195.390 224.287 C 196.307 222.574,196.396 222.931,194.366 220.185 C 191.203 215.905,187.592 211.042,187.062 210.348 C 186.336 209.398,186.265 209.597,188.042 207.615 C 188.890 206.669,190.004 205.413,190.518 204.823 C 191.032 204.233,192.907 202.103,194.684 200.090 C 200.131 193.923,202.833 190.824,202.833 190.743 C 202.833 190.701,199.327 190.670,195.042 190.673 L 187.250 190.680 182.417 196.286 C 179.758 199.369,176.608 203.035,175.417 204.433 C 174.225 205.831,173.194 206.980,173.125 206.987 C 173.056 206.994,173.000 198.112,173.000 187.250 L 173.000 167.500 166.583 167.500 L 160.167 167.500 160.167 199.917 M208.135 167.625 C 208.107 167.694,208.121 175.461,208.167 184.886 L 208.250 202.021 208.768 201.136 C 209.053 200.649,209.722 199.463,210.254 198.500 C 211.465 196.308,213.577 192.948,213.924 192.661 C 214.068 192.541,214.587 191.612,215.078 190.597 C 215.570 189.581,216.363 188.112,216.842 187.333 C 217.715 185.911,218.043 185.339,219.132 183.333 C 219.456 182.737,219.971 181.894,220.277 181.458 L 220.833 180.666 220.833 174.083 L 220.833 167.500 214.510 167.500 C 211.032 167.500,208.163 167.556,208.135 167.625 M306.833 167.542 C 306.833 167.565,306.814 182.152,306.791 199.958 L 306.750 232.333 313.125 232.333 L 319.500 232.333 319.503 221.792 C 319.506 207.108,319.677 205.599,321.597 203.230 C 324.275 199.926,330.839 200.233,332.722 203.750 C 333.956 206.056,334.000 206.624,334.000 220.355 L 334.000 232.333 340.417 232.333 L 346.833 232.333 346.833 219.412 C 346.833 200.953,346.468 198.395,343.246 194.290 C 338.034 187.650,323.833 188.350,320.254 195.424 C 320.001 195.924,319.728 196.333,319.647 196.333 C 319.563 196.333,319.500 190.116,319.500 181.917 L 319.500 167.500 313.167 167.500 C 309.683 167.500,306.833 167.519,306.833 167.542 M246.000 168.978 C 246.000 169.057,246.140 169.301,246.310 169.519 C 246.481 169.738,246.674 170.085,246.738 170.292 C 246.803 170.498,246.928 170.667,247.015 170.667 C 247.103 170.667,247.250 170.865,247.342 171.106 C 247.434 171.348,247.545 171.510,247.589 171.467 C 247.706 171.349,247.324 170.333,247.162 170.333 C 247.086 170.333,246.855 169.996,246.649 169.583 C 246.308 168.901,246.000 168.613,246.000 168.978 M225.948 170.406 C 225.770 170.541,225.715 170.677,225.815 170.739 C 225.908 170.796,226.065 170.691,226.164 170.505 C 226.376 170.110,226.353 170.099,225.948 170.406 M15.500 171.697 C 15.499 171.726,15.481 185.386,15.458 202.051 L 15.417 232.353 28.750 232.288 C 43.530 232.217,43.510 232.218,48.097 231.001 C 64.631 226.612,73.576 213.259,71.096 196.667 C 69.001 182.653,60.075 174.717,43.500 172.134 C 41.492 171.821,15.502 171.416,15.500 171.697 M249.835 174.170 C 250.042 174.557,250.167 174.593,250.167 174.268 C 250.167 174.140,250.052 173.992,249.913 173.938 C 249.706 173.859,249.691 173.902,249.835 174.170 M224.667 174.242 C 224.667 174.375,224.570 174.543,224.451 174.617 C 224.332 174.690,224.014 175.200,223.743 175.750 C 223.472 176.300,223.157 176.849,223.042 176.970 C 222.367 177.683,222.041 177.667,237.093 177.667 C 248.456 177.667,251.328 177.624,251.228 177.458 C 251.160 177.344,250.818 176.828,250.469 176.313 C 250.119 175.798,249.833 175.292,249.833 175.188 C 249.833 175.085,249.760 175.000,249.671 175.000 C 249.582 175.000,249.392 174.775,249.250 174.500 L 248.991 174.000 236.829 174.000 C 226.314 174.000,224.667 174.033,224.667 174.242 M251.011 175.917 C 251.011 176.008,251.121 176.229,251.255 176.407 C 251.390 176.585,251.500 176.655,251.500 176.564 C 251.500 176.472,251.390 176.251,251.255 176.074 C 251.121 175.896,251.011 175.825,251.011 175.917 M360.333 184.500 L 360.333 190.667 356.167 190.667 L 352.000 190.667 352.000 195.833 L 352.000 201.000 356.160 201.000 L 360.320 201.000 360.369 212.458 L 360.417 223.917 360.935 225.370 C 362.196 228.902,364.438 231.017,368.417 232.431 C 371.768 233.621,379.339 233.644,383.292 232.475 L 384.500 232.118 384.500 226.835 L 384.500 221.551 383.708 221.934 C 381.577 222.966,377.013 222.881,375.346 221.778 C 373.295 220.421,373.274 220.306,373.171 209.877 L 373.083 201.004 378.750 200.960 L 384.417 200.917 384.461 195.792 L 384.505 190.667 378.836 190.667 L 373.167 190.667 373.167 184.500 L 373.167 178.333 366.750 178.333 L 360.333 178.333 360.333 184.500 M41.667 184.317 C 52.775 186.342,58.370 193.151,57.507 203.598 C 56.517 215.594,48.846 220.455,31.417 220.133 L 28.750 220.083 28.707 202.167 C 28.683 192.313,28.704 184.145,28.753 184.016 C 28.896 183.641,39.291 183.884,41.667 184.317 M94.751 189.856 C 89.260 190.383,84.063 192.516,80.171 195.842 L 79.591 196.337 82.280 199.044 C 83.759 200.532,85.286 202.105,85.675 202.540 L 86.381 203.329 87.484 202.290 C 94.148 196.009,105.167 197.795,105.167 205.157 L 105.167 205.783 103.641 205.892 C 102.802 205.951,101.239 206.000,100.168 206.000 C 91.729 206.000,84.004 208.138,80.628 211.408 C 76.239 215.661,75.672 223.207,79.376 228.083 C 84.694 235.085,99.013 235.164,104.154 228.220 C 105.181 226.833,105.167 226.812,105.167 229.750 L 105.167 232.333 111.096 232.333 L 117.025 232.333 116.956 219.292 C 116.881 205.207,116.833 204.385,115.861 200.899 C 113.520 192.501,106.337 188.743,94.751 189.856 M147.860 189.834 C 144.100 190.364,140.570 192.983,138.587 196.713 C 138.050 197.723,138.000 197.491,138.000 194.000 L 138.000 190.667 131.583 190.667 L 125.167 190.667 125.167 211.500 L 125.167 232.333 131.583 232.333 L 138.000 232.333 138.000 222.092 C 138.000 207.756,138.324 205.837,141.182 203.268 C 143.399 201.275,148.384 200.383,152.417 201.259 C 153.058 201.399,153.790 201.557,154.042 201.610 L 154.500 201.708 154.500 195.876 L 154.500 190.044 153.875 189.936 C 152.770 189.745,148.950 189.680,147.860 189.834 M267.500 189.853 C 266.233 189.998,263.256 190.859,262.754 191.227 C 262.510 191.405,262.615 191.629,263.714 193.255 C 265.286 195.584,265.705 196.175,266.852 197.685 C 267.367 198.363,268.209 199.573,268.724 200.375 C 269.238 201.177,269.718 201.833,269.790 201.833 C 269.862 201.833,270.333 201.675,270.836 201.482 C 275.764 199.590,281.966 202.581,283.946 207.805 C 285.152 210.985,284.446 215.024,282.196 217.818 C 281.663 218.479,281.389 218.955,281.476 219.068 C 282.818 220.814,283.375 221.570,283.881 222.333 C 285.090 224.155,287.113 227.134,288.523 229.171 C 289.314 230.314,290.203 231.662,290.497 232.167 C 290.792 232.671,291.320 233.458,291.671 233.917 C 292.022 234.375,292.909 235.670,293.641 236.794 L 294.973 238.838 295.146 238.294 C 296.291 234.696,296.333 233.724,296.333 211.045 L 296.333 190.662 290.485 190.706 L 284.636 190.750 284.610 193.403 C 284.579 196.454,284.545 196.508,283.473 195.179 C 280.352 191.309,273.819 189.131,267.500 189.853 M105.167 216.141 C 105.167 218.542,104.912 219.591,104.012 220.899 C 100.304 226.289,89.255 225.743,89.261 220.169 C 89.266 215.934,93.271 214.138,102.958 214.026 L 105.167 214.000 105.167 216.141 " stroke="none" fill="#040404" fill-rule="evenodd"></path><path id="path2" d="M241.167 161.595 C 241.167 161.648,241.279 161.803,241.417 161.940 C 241.688 162.212,241.722 162.171,241.566 161.764 C 241.470 161.516,241.167 161.388,241.167 161.595 M160.083 199.958 L 160.083 232.417 166.417 232.420 L 172.750 232.423 166.459 232.376 L 160.168 232.329 160.125 199.915 L 160.082 167.500 160.083 199.958 M319.580 181.833 C 319.580 189.671,319.600 192.877,319.625 188.958 C 319.650 185.040,319.650 178.627,319.625 174.708 C 319.600 170.790,319.580 173.996,319.580 181.833 M208.040 185.282 C 208.018 194.924,208.061 202.851,208.135 202.897 C 208.209 202.943,209.046 201.616,209.993 199.949 C 210.941 198.281,212.069 196.429,212.499 195.833 C 212.929 195.237,214.015 193.438,214.913 191.833 C 215.811 190.229,216.749 188.579,216.996 188.167 C 217.632 187.105,218.645 185.344,219.677 183.500 C 220.165 182.629,220.625 181.892,220.699 181.861 C 220.773 181.831,220.831 181.568,220.827 181.278 L 220.821 180.750 220.426 181.233 C 220.209 181.499,219.635 182.437,219.151 183.317 C 217.852 185.681,217.787 185.794,216.841 187.333 C 216.363 188.112,215.570 189.581,215.078 190.597 C 214.587 191.612,214.068 192.541,213.924 192.661 C 213.577 192.948,211.465 196.308,210.254 198.500 C 209.722 199.463,209.053 200.649,208.768 201.136 L 208.250 202.021 208.165 184.886 L 208.081 167.750 208.040 185.282 M306.748 200.000 C 306.748 217.737,306.768 224.994,306.792 216.125 C 306.815 207.256,306.815 192.744,306.792 183.875 C 306.768 175.006,306.748 182.262,306.748 200.000 M20.887 171.625 C 23.621 171.651,28.046 171.651,30.720 171.625 C 33.395 171.599,31.158 171.578,25.750 171.578 C 20.342 171.578,18.153 171.599,20.887 171.625 M15.415 202.083 C 15.415 218.675,15.434 225.438,15.458 217.112 C 15.482 208.786,15.482 195.211,15.458 186.945 C 15.434 178.679,15.415 185.492,15.415 202.083 M360.242 184.500 C 360.242 187.938,360.264 189.344,360.291 187.625 C 360.319 185.906,360.319 183.094,360.291 181.375 C 360.264 179.656,360.242 181.063,360.242 184.500 M63.000 180.385 C 63.000 180.414,63.244 180.658,63.542 180.927 L 64.083 181.417 63.594 180.875 C 63.138 180.370,63.000 180.257,63.000 180.385 M28.744 184.042 C 28.700 184.156,28.683 192.313,28.707 202.167 L 28.750 220.083 32.333 220.088 L 35.917 220.093 32.375 220.043 L 28.833 219.993 28.833 202.000 L 28.833 184.006 32.958 183.958 L 37.083 183.911 32.953 183.872 C 29.773 183.842,28.805 183.881,28.744 184.042 M95.375 189.782 C 95.535 189.823,95.798 189.823,95.958 189.782 C 96.119 189.740,95.987 189.705,95.667 189.705 C 95.346 189.705,95.215 189.740,95.375 189.782 M262.184 191.481 C 261.728 191.832,261.726 191.826,262.834 193.250 C 263.671 194.326,266.944 198.985,268.250 200.958 C 268.689 201.623,269.132 202.161,269.233 202.155 C 269.530 202.136,270.103 201.858,269.871 201.845 C 269.755 201.839,269.238 201.177,268.724 200.375 C 268.209 199.573,267.367 198.363,266.852 197.685 C 264.835 195.031,262.478 191.504,262.595 191.315 C 262.729 191.098,262.631 191.137,262.184 191.481 M284.562 192.833 C 284.562 193.796,284.589 194.190,284.623 193.708 C 284.657 193.227,284.657 192.440,284.623 191.958 C 284.589 191.477,284.562 191.871,284.562 192.833 M82.500 199.379 C 82.500 199.404,83.081 199.986,83.792 200.671 L 85.083 201.917 83.838 200.625 C 82.680 199.425,82.500 199.257,82.500 199.379 M57.553 201.500 C 57.553 202.096,57.584 202.340,57.621 202.042 C 57.658 201.744,57.658 201.256,57.621 200.958 C 57.584 200.660,57.553 200.904,57.553 201.500 M360.245 211.167 C 360.245 216.621,360.266 218.852,360.292 216.125 C 360.317 213.398,360.317 208.935,360.292 206.208 C 360.266 203.481,360.245 205.713,360.245 211.167 M321.906 202.875 L 321.417 203.417 321.958 202.927 C 322.463 202.471,322.577 202.333,322.448 202.333 C 322.419 202.333,322.175 202.577,321.906 202.875 M101.875 205.953 C 102.127 205.991,102.540 205.991,102.792 205.953 C 103.044 205.915,102.837 205.883,102.333 205.883 C 101.829 205.883,101.623 205.915,101.875 205.953 M319.540 221.373 L 319.500 232.329 313.125 232.375 L 306.750 232.421 313.130 232.460 C 318.110 232.491,319.528 232.454,319.590 232.292 C 319.634 232.177,319.650 227.208,319.625 221.250 L 319.581 210.417 319.540 221.373 M101.701 214.123 C 102.316 214.155,103.366 214.156,104.034 214.124 C 104.703 214.092,104.200 214.066,102.917 214.066 C 101.633 214.065,101.086 214.091,101.701 214.123 M281.108 218.973 C 280.847 219.261,280.860 219.320,281.321 219.956 C 281.989 220.879,288.073 229.703,290.027 232.583 C 294.704 239.478,294.730 239.513,294.879 239.246 C 295.048 238.944,294.754 238.415,292.967 235.807 C 291.596 233.805,290.908 232.781,289.400 230.500 C 288.825 229.629,287.483 227.642,286.419 226.083 C 285.354 224.525,284.285 222.950,284.041 222.583 C 283.798 222.217,283.108 221.253,282.508 220.441 C 281.908 219.629,281.435 218.898,281.458 218.816 C 281.522 218.587,281.412 218.636,281.108 218.973 M89.209 220.083 C 89.211 220.450,89.245 220.580,89.285 220.373 C 89.324 220.166,89.323 219.866,89.281 219.706 C 89.239 219.547,89.207 219.717,89.209 220.083 M196.079 222.659 C 196.196 222.850,194.973 225.168,193.641 227.278 C 192.686 228.792,191.410 231.331,191.305 231.928 C 191.165 232.718,191.778 232.279,192.307 231.210 C 192.613 230.590,193.724 228.569,194.775 226.717 C 196.665 223.387,196.683 223.346,196.407 222.926 C 196.152 222.536,195.852 222.293,196.079 222.659 M21.042 232.458 C 24.135 232.484,29.198 232.484,32.292 232.458 C 35.385 232.433,32.854 232.412,26.667 232.412 C 20.479 232.412,17.948 232.433,21.042 232.458 M108.208 232.458 C 109.835 232.485,112.498 232.485,114.125 232.458 C 115.752 232.431,114.421 232.408,111.167 232.408 C 107.912 232.408,106.581 232.431,108.208 232.458 M128.292 232.458 C 130.056 232.485,132.944 232.485,134.708 232.458 C 136.473 232.431,135.029 232.409,131.500 232.409 C 127.971 232.409,126.527 232.431,128.292 232.458 M188.125 232.456 C 188.606 232.490,189.394 232.490,189.875 232.456 C 190.356 232.423,189.963 232.395,189.000 232.395 C 188.037 232.395,187.644 232.423,188.125 232.456 M337.292 232.458 C 339.056 232.485,341.944 232.485,343.708 232.458 C 345.473 232.431,344.029 232.409,340.500 232.409 C 336.971 232.409,335.527 232.431,337.292 232.458 M91.295 233.454 C 91.594 233.491,92.044 233.490,92.295 233.452 C 92.545 233.414,92.300 233.384,91.750 233.385 C 91.200 233.386,90.995 233.417,91.295 233.454 M374.875 233.455 C 375.219 233.491,375.781 233.491,376.125 233.455 C 376.469 233.419,376.188 233.389,375.500 233.389 C 374.813 233.389,374.531 233.419,374.875 233.455 " stroke="none" fill="#5b4b15" fill-rule="evenodd"></path><path id="path3" d="M220.909 173.917 C 220.909 177.492,220.931 178.930,220.958 177.114 C 220.985 175.297,220.985 172.372,220.958 170.614 C 220.931 168.855,220.909 170.342,220.909 173.917 M35.708 171.615 C 35.869 171.657,36.131 171.657,36.292 171.615 C 36.452 171.573,36.321 171.539,36.000 171.539 C 35.679 171.539,35.548 171.573,35.708 171.615 M219.508 183.793 C 218.917 184.870,218.273 186.012,218.078 186.333 C 217.366 187.501,216.518 188.976,214.916 191.833 C 214.017 193.438,212.929 195.237,212.499 195.833 C 212.069 196.429,210.941 198.281,209.993 199.949 C 209.046 201.616,208.210 202.944,208.137 202.898 C 208.064 202.853,208.050 202.936,208.107 203.084 C 208.227 203.397,208.168 203.486,210.280 199.800 C 211.081 198.402,212.111 196.770,212.568 196.171 C 213.026 195.573,213.749 194.446,214.176 193.667 C 215.191 191.815,216.840 188.902,217.761 187.333 C 218.165 186.646,218.671 185.746,218.886 185.333 C 219.100 184.921,219.626 183.996,220.055 183.278 C 220.876 181.901,220.907 181.832,220.708 181.835 C 220.640 181.836,220.099 182.717,219.508 183.793 M261.607 191.796 C 261.548 191.890,262.028 192.631,262.672 193.442 C 263.810 194.874,264.261 195.511,267.373 200.083 C 268.185 201.275,268.928 202.278,269.025 202.311 C 269.304 202.408,264.560 195.468,262.831 193.250 C 262.403 192.700,261.976 192.109,261.882 191.937 C 261.782 191.752,261.669 191.694,261.607 191.796 M346.912 220.667 C 346.912 226.854,346.933 229.385,346.958 226.292 C 346.984 223.198,346.984 218.135,346.958 215.042 C 346.933 211.948,346.912 214.479,346.912 220.667 M280.783 219.550 C 280.925 219.781,282.587 222.192,285.975 227.083 C 287.118 228.733,288.517 230.758,289.084 231.583 C 289.650 232.408,291.104 234.527,292.315 236.292 C 293.526 238.056,294.555 239.500,294.602 239.500 C 294.720 239.500,294.627 239.353,293.025 237.000 C 292.245 235.854,290.895 233.867,290.026 232.583 C 288.747 230.696,283.668 223.312,281.404 220.048 C 280.970 219.423,280.447 219.004,280.783 219.550 M195.427 225.543 C 192.326 231.015,191.653 232.333,191.961 232.333 C 192.044 232.333,192.115 232.240,192.119 232.125 C 192.124 232.010,193.081 230.229,194.245 228.167 C 196.803 223.637,196.876 223.500,196.713 223.502 C 196.642 223.502,196.063 224.421,195.427 225.543 " stroke="none" fill="#7c6c3c" fill-rule="evenodd"></path><path id="path4" d="M36.877 171.620 C 37.131 171.658,37.506 171.657,37.711 171.617 C 37.916 171.578,37.708 171.546,37.250 171.548 C 36.792 171.549,36.624 171.581,36.877 171.620 M224.200 177.791 C 224.997 177.821,226.347 177.821,227.200 177.791 C 228.052 177.761,227.400 177.736,225.750 177.736 C 224.100 177.735,223.402 177.760,224.200 177.791 M242.542 177.788 C 242.885 177.824,243.448 177.824,243.792 177.788 C 244.135 177.752,243.854 177.723,243.167 177.723 C 242.479 177.723,242.198 177.752,242.542 177.788 M246.625 177.791 C 247.473 177.821,248.860 177.821,249.708 177.791 C 250.556 177.761,249.862 177.736,248.167 177.736 C 246.471 177.736,245.777 177.761,246.625 177.791 M363.458 178.291 C 365.223 178.318,368.110 178.318,369.875 178.291 C 371.640 178.264,370.196 178.242,366.667 178.242 C 363.137 178.242,361.694 178.264,363.458 178.291 M220.861 181.111 C 220.839 181.811,220.687 182.217,220.055 183.278 C 219.626 183.996,219.100 184.921,218.886 185.333 C 218.671 185.746,218.165 186.646,217.761 187.333 C 216.840 188.902,215.191 191.815,214.176 193.667 C 213.749 194.446,213.027 195.571,212.572 196.167 C 212.116 196.762,210.960 198.615,210.001 200.283 C 208.881 202.232,208.210 203.244,208.123 203.116 C 208.043 202.998,208.007 203.121,208.036 203.417 C 208.089 203.977,208.332 204.041,208.583 203.560 C 212.110 196.805,213.731 195.216,215.093 197.180 C 215.914 198.366,217.913 200.079,219.723 201.151 C 220.703 201.731,221.577 202.328,221.664 202.478 C 221.766 202.653,221.825 198.858,221.828 191.875 C 221.833 181.590,221.778 180.248,221.394 181.250 C 221.224 181.691,221.022 181.518,220.955 180.875 C 220.900 180.352,220.885 180.390,220.861 181.111 M229.824 189.870 C 229.509 189.986,229.500 190.222,229.500 198.060 L 229.500 206.130 230.792 206.209 C 232.580 206.318,242.046 206.187,243.167 206.038 L 244.083 205.917 244.127 198.063 C 244.166 190.921,244.145 190.189,243.894 189.981 C 243.592 189.730,230.481 189.627,229.824 189.870 M125.081 211.500 C 125.081 223.004,125.101 227.710,125.125 221.958 C 125.149 216.206,125.149 206.794,125.125 201.042 C 125.101 195.290,125.081 199.996,125.081 211.500 M260.481 191.310 C 260.262 191.480,259.822 191.754,259.502 191.918 C 258.891 192.232,255.337 195.791,255.335 196.092 C 255.334 196.189,255.071 196.522,254.750 196.833 C 254.429 197.144,254.167 197.462,254.167 197.540 C 254.167 197.617,254.009 197.846,253.817 198.049 C 253.446 198.439,252.097 201.132,251.921 201.833 C 251.831 202.191,251.847 202.214,252.033 201.991 C 252.152 201.849,252.625 201.476,253.083 201.163 C 254.159 200.429,257.989 196.697,258.602 195.786 C 259.677 194.189,260.536 193.167,260.801 193.171 C 261.604 193.183,263.383 195.075,264.883 197.512 C 266.178 199.616,268.308 202.587,268.507 202.567 C 268.595 202.558,268.747 202.539,268.845 202.525 C 269.000 202.503,268.249 201.352,264.643 196.083 C 264.204 195.442,263.318 194.253,262.673 193.442 C 262.028 192.631,261.547 191.892,261.604 191.800 C 261.665 191.702,261.567 191.708,261.364 191.817 C 260.910 192.060,260.886 192.054,260.785 191.666 C 260.731 191.460,260.803 191.271,260.974 191.171 C 261.126 191.083,261.166 191.008,261.064 191.005 C 260.962 191.002,260.699 191.139,260.481 191.310 M81.000 197.917 C 81.498 198.421,81.943 198.833,81.989 198.833 C 82.034 198.833,81.665 198.421,81.167 197.917 C 80.669 197.412,80.224 197.000,80.178 197.000 C 80.132 197.000,80.502 197.412,81.000 197.917 M346.872 209.000 C 346.872 209.321,346.906 209.452,346.948 209.292 C 346.990 209.131,346.990 208.869,346.948 208.708 C 346.906 208.548,346.872 208.679,346.872 209.000 M280.444 219.470 C 280.185 219.756,280.301 219.967,282.492 223.178 C 283.769 225.051,285.395 227.441,286.104 228.488 C 286.814 229.536,287.743 230.848,288.168 231.405 C 288.594 231.961,289.793 233.692,290.833 235.250 C 292.900 238.348,294.301 240.266,294.463 240.221 C 294.640 240.171,294.832 239.500,294.670 239.500 C 294.537 239.500,293.432 237.935,289.314 231.917 C 288.284 230.411,284.125 224.394,282.114 221.500 C 281.382 220.446,280.781 219.490,280.780 219.375 C 280.777 219.108,280.770 219.110,280.444 219.470 M194.436 227.825 C 193.164 230.108,192.119 232.037,192.115 232.113 C 192.092 232.517,192.631 232.252,192.934 231.710 C 193.127 231.365,193.622 230.483,194.035 229.750 C 196.775 224.875,197.342 223.655,196.865 223.670 C 196.802 223.672,195.709 225.542,194.436 227.825 " stroke="none" fill="#7c743c" fill-rule="evenodd"></path></g></svg>